<svg width="26" height="23" viewBox="0 0 26 23" fill="none" xmlns="http://www.w3.org/2000/svg">
<path d="M4.05991 22.0012C3.51991 21.9912 2.98991 21.8512 2.52991 21.5812C1.80991 21.1612 1.2999 20.4912 1.0799 19.6912C0.8699 18.8912 0.979928 18.0512 1.38993 17.3312L10.3399 2.39119C10.3399 2.39119 10.3399 2.39118 10.3399 2.38118C10.5999 1.95118 10.9599 1.59119 11.3899 1.33119C12.8599 0.441192 14.7699 0.91118 15.6599 2.38118L24.5999 17.3112C24.8699 17.7912 25.0199 18.3111 25.0199 18.8512C25.0299 19.6812 24.7099 20.4612 24.1299 21.0612C23.5499 21.6612 22.7699 21.9912 21.9399 22.0012H4.05991ZM12.0499 3.43117L3.1099 18.3512C2.9699 18.5912 2.92992 18.8912 3.00992 19.1812C3.08992 19.4712 3.26991 19.7112 3.52991 19.8512C3.69991 19.9512 3.87992 20.0012 4.06992 20.0012H21.9399C22.2299 20.0012 22.4999 19.8812 22.7099 19.6712C22.9199 19.4612 23.0299 19.1812 23.0299 18.8812C23.0299 18.6912 22.9799 18.5012 22.8799 18.3412L13.9499 3.43117C13.6399 2.91117 12.9499 2.74117 12.4299 3.06117C12.2699 3.15117 12.1399 3.28117 12.0499 3.43117Z" fill="#14924B"/>
<path d="M13 13.5598C12.45 13.5598 12 13.1098 12 12.5598V8.33984C12 7.78984 12.45 7.33984 13 7.33984C13.55 7.33984 14 7.78984 14 8.33984V12.5598C14 13.1098 13.55 13.5598 13 13.5598Z" fill="#14924B"/>
<path d="M13 17.7805C12.74 17.7805 12.48 17.6705 12.29 17.4905C12.11 17.3005 12 17.0405 12 16.7805C12 16.5205 12.11 16.2605 12.29 16.0705C12.66 15.7005 13.33 15.7005 13.71 16.0705C13.89 16.2605 14 16.5205 14 16.7805C14 17.0405 13.89 17.3005 13.71 17.4905C13.52 17.6705 13.26 17.7805 13 17.7805Z" fill="#14924B"/>
</svg>
