<svg width="25" height="22" viewBox="0 0 25 22" fill="none" xmlns="http://www.w3.org/2000/svg">
<path d="M24.17 19.4202L13.48 1.17023C13.23 0.750227 12.78 0.490234 12.29 0.490234C11.8 0.490234 11.35 0.750227 11.1 1.17023L0.409966 19.4202C0.159966 19.8402 0.159956 20.3702 0.399956 20.8002C0.639956 21.2302 1.09996 21.4902 1.58996 21.4902H22.97C23.46 21.4902 23.92 21.2302 24.16 20.8002C24.42 20.3702 24.42 19.8502 24.17 19.4202ZM13.32 8.06024L13.09 14.8203H11.48L11.25 8.06024H13.32ZM13.07 17.6302C12.87 17.8202 12.61 17.9202 12.28 17.9202C11.96 17.9202 11.7 17.8202 11.5 17.6302C11.3 17.4402 11.2 17.1903 11.2 16.9003C11.2 16.6103 11.3 16.3602 11.5 16.1702C11.7 15.9802 11.96 15.8802 12.28 15.8802C12.61 15.8802 12.87 15.9802 13.07 16.1702C13.27 16.3602 13.37 16.6102 13.37 16.9102C13.37 17.2002 13.27 17.4402 13.07 17.6302Z" fill="#FF4D38"/>
</svg>
