<svg width="282" height="142" viewBox="0 0 282 142" fill="none" xmlns="http://www.w3.org/2000/svg">
<path d="M281 141H228.17C228.17 92.93 189.07 53.83 141 53.83C92.93 53.83 53.83 92.93 53.83 141H1C1 63.8 63.8 1 141 1C218.2 1 281 63.8 281 141Z" stroke="#14924B" stroke-width="0.8805" stroke-miterlimit="10"/>
<path d="M53.83 141H1C1 63.8 63.8 1 141 1C180.92 1 219.05 18.12 245.61 47.96L206.14 83.08C189.6 64.49 165.85 53.83 140.99 53.83C92.93 53.83 53.83 92.93 53.83 141Z" fill="#14924B"/>
<path d="M129.191 113.04C129.191 115.433 128.696 117.264 127.705 118.531C126.715 119.799 125.265 120.433 123.355 120.433C121.469 120.433 120.027 119.811 119.029 118.567C118.03 117.323 117.519 115.54 117.495 113.218V110.033C117.495 107.616 117.995 105.782 118.993 104.53C119.999 103.278 121.445 102.652 123.331 102.652C125.217 102.652 126.659 103.274 127.658 104.518C128.656 105.754 129.167 107.533 129.191 109.855V113.04ZM125.756 109.546C125.756 108.112 125.558 107.07 125.162 106.42C124.773 105.762 124.163 105.433 123.331 105.433C122.523 105.433 121.925 105.746 121.536 106.372C121.156 106.99 120.954 107.961 120.93 109.284V113.492C120.93 114.902 121.12 115.952 121.501 116.642C121.889 117.323 122.507 117.664 123.355 117.664C124.195 117.664 124.801 117.335 125.173 116.677C125.546 116.02 125.74 115.013 125.756 113.658V109.546ZM131.841 118.508C131.841 117.961 132.024 117.517 132.388 117.176C132.76 116.836 133.224 116.665 133.779 116.665C134.341 116.665 134.805 116.836 135.169 117.176C135.542 117.517 135.728 117.961 135.728 118.508C135.728 119.046 135.546 119.486 135.181 119.827C134.817 120.16 134.349 120.326 133.779 120.326C133.216 120.326 132.752 120.16 132.388 119.827C132.024 119.486 131.841 119.046 131.841 118.508ZM150.371 104.815L143.679 120.195H140.054L146.758 105.671H138.153V102.89H150.371V104.815ZM160.925 120.195H157.49V106.955L153.39 108.227V105.433L160.557 102.866H160.925V120.195Z" fill="black"/>
</svg>
