<svg width="398" height="164" viewBox="0 0 398 164" fill="none" xmlns="http://www.w3.org/2000/svg">
<path d="M320 5H22V27H320V5Z" fill="#C4C4C4"/>
<path d="M397 5H22V27H397V5Z" stroke="#C4C4C4" stroke-miterlimit="10"/>
<path d="M22 0V163H397" stroke="#D6D6D6" stroke-width="0.5" stroke-miterlimit="10"/>
<path d="M9.11914 144.768H0.587891V142.359C0.587891 141.617 0.751953 140.961 1.08008 140.391C1.4082 139.82 1.875 139.381 2.48047 139.072C3.08594 138.76 3.78125 138.602 4.56641 138.598H5.11133C5.91602 138.598 6.62109 138.754 7.22656 139.066C7.83203 139.375 8.29688 139.818 8.62109 140.396C8.94531 140.971 9.11133 141.641 9.11914 142.406V144.768ZM1.51367 143.643H8.19922V142.459C8.19922 141.592 7.92969 140.918 7.39062 140.438C6.85156 139.953 6.08398 139.711 5.08789 139.711H4.58984C3.62109 139.711 2.86914 139.939 2.33398 140.396C1.79492 140.85 1.52148 141.494 1.51367 142.33V143.643ZM8.49219 133.148C8.98828 133.57 9.23633 134.189 9.23633 135.006C9.23633 135.682 9.04102 136.197 8.65039 136.553C8.25586 136.904 7.67383 137.082 6.9043 137.086H2.7793V136.002H6.875C7.83594 136.002 8.31641 135.611 8.31641 134.83C8.31641 134.002 8.00781 133.451 7.39062 133.178H2.7793V132.094H9.11914V133.125L8.49219 133.148ZM3.75195 127.377C3.72461 127.541 3.71094 127.719 3.71094 127.91C3.71094 128.621 4.01367 129.104 4.61914 129.357H9.11914V130.441H2.7793V129.387L3.51172 129.369C2.94531 129.014 2.66211 128.51 2.66211 127.857C2.66211 127.646 2.68945 127.486 2.74414 127.377H3.75195ZM9.11914 125.197V126.281H2.7793V125.197H9.11914ZM1.09766 126.369C0.921875 126.369 0.773438 126.316 0.652344 126.211C0.53125 126.102 0.470703 125.941 0.470703 125.73C0.470703 125.52 0.53125 125.359 0.652344 125.25C0.773438 125.141 0.921875 125.086 1.09766 125.086C1.27344 125.086 1.41992 125.141 1.53711 125.25C1.6543 125.359 1.71289 125.52 1.71289 125.73C1.71289 125.941 1.6543 126.102 1.53711 126.211C1.41992 126.316 1.27344 126.369 1.09766 126.369ZM2.7793 122.432L3.57617 122.396C2.9668 121.912 2.66211 121.279 2.66211 120.498C2.66211 119.158 3.41797 118.482 4.92969 118.471H9.11914V119.555H4.92383C4.4668 119.559 4.12891 119.664 3.91016 119.871C3.69141 120.074 3.58203 120.393 3.58203 120.826C3.58203 121.178 3.67578 121.486 3.86328 121.752C4.05078 122.018 4.29688 122.225 4.60156 122.373H9.11914V123.457H2.7793V122.432ZM5.89648 117.094C4.9082 117.094 4.12305 116.865 3.54102 116.408C2.95508 115.951 2.66211 115.346 2.66211 114.592C2.66211 113.818 2.93555 113.215 3.48242 112.781L2.7793 112.729V111.738H8.9668C9.78711 111.738 10.4336 111.982 10.9062 112.471C11.3789 112.955 11.6152 113.607 11.6152 114.428C11.6152 114.885 11.5176 115.332 11.3223 115.77C11.127 116.207 10.8594 116.541 10.5195 116.771L9.86914 116.209C10.4434 115.744 10.7305 115.176 10.7305 114.504C10.7305 113.977 10.582 113.566 10.2852 113.273C9.98828 112.977 9.57031 112.828 9.03125 112.828H8.48633C8.98633 113.262 9.23633 113.854 9.23633 114.604C9.23633 115.346 8.9375 115.947 8.33984 116.408C7.74219 116.865 6.92773 117.094 5.89648 117.094ZM6.01953 116.004C6.73438 116.004 7.29688 115.857 7.70703 115.564C8.11328 115.271 8.31641 114.861 8.31641 114.334C8.31641 113.65 8.00586 113.148 7.38477 112.828H4.49023C3.88477 113.16 3.58203 113.658 3.58203 114.322C3.58203 114.85 3.78711 115.262 4.19727 115.559C4.60742 115.855 5.21484 116.004 6.01953 116.004ZM1.24414 105.65H2.7793V104.467H3.61719V105.65H7.54883C7.80273 105.65 7.99414 105.598 8.12305 105.492C8.24805 105.387 8.31055 105.207 8.31055 104.953C8.31055 104.828 8.28711 104.656 8.24023 104.438H9.11914C9.19727 104.723 9.23633 105 9.23633 105.27C9.23633 105.754 9.08984 106.119 8.79688 106.365C8.50391 106.611 8.08789 106.734 7.54883 106.734H3.61719V107.889H2.7793V106.734H1.24414V105.65ZM3.54688 102.111C2.95703 101.631 2.66211 101.006 2.66211 100.236C2.66211 98.8965 3.41797 98.2207 4.92969 98.209H9.11914V99.293H4.92383C4.4668 99.2969 4.12891 99.4023 3.91016 99.6094C3.69141 99.8125 3.58203 100.131 3.58203 100.564C3.58203 100.916 3.67578 101.225 3.86328 101.49C4.05078 101.756 4.29688 101.963 4.60156 102.111H9.11914V103.195H0.119141V102.111H3.54688ZM9.23633 93.9551C9.23633 94.8145 8.95508 95.5137 8.39258 96.0527C7.82617 96.5918 7.07031 96.8613 6.125 96.8613H5.92578C5.29688 96.8613 4.73633 96.7422 4.24414 96.5039C3.74805 96.2617 3.36133 95.9258 3.08398 95.4961C2.80273 95.0625 2.66211 94.5938 2.66211 94.0898C2.66211 93.2656 2.93359 92.625 3.47656 92.168C4.01953 91.7109 4.79688 91.4824 5.80859 91.4824H6.25977V95.7773C6.88477 95.7617 7.39062 95.5801 7.77734 95.2324C8.16016 94.8809 8.35156 94.4355 8.35156 93.8965C8.35156 93.5137 8.27344 93.1895 8.11719 92.9238C7.96094 92.6582 7.75391 92.4258 7.49609 92.2266L8.01172 91.5645C8.82812 92.0957 9.23633 92.8926 9.23633 93.9551ZM3.55273 94.0898C3.55273 94.5273 3.71289 94.8945 4.0332 95.1914C4.34961 95.4883 4.79492 95.6719 5.36914 95.7422V92.5664H5.28711C4.73633 92.5977 4.31055 92.7461 4.00977 93.0117C3.70508 93.2773 3.55273 93.6367 3.55273 94.0898ZM9.11914 86.0684V87.1523H0.119141V86.0684H9.11914ZM9.11914 80.4141C8.99414 80.4766 8.77148 80.5273 8.45117 80.5664C8.97461 81.0703 9.23633 81.6719 9.23633 82.3711C9.23633 82.9961 9.06055 83.5098 8.70898 83.9121C8.35352 84.3105 7.9043 84.5098 7.36133 84.5098C6.70117 84.5098 6.18945 84.2598 5.82617 83.7598C5.45898 83.2559 5.27539 82.5488 5.27539 81.6387V80.584H4.77734C4.39844 80.584 4.09766 80.6973 3.875 80.9238C3.64844 81.1504 3.53516 81.4844 3.53516 81.9258C3.53516 82.3125 3.63281 82.6367 3.82812 82.8984C4.02344 83.1602 4.25977 83.291 4.53711 83.291V84.3809C4.2207 84.3809 3.91602 84.2695 3.62305 84.0469C3.32617 83.8203 3.0918 83.5156 2.91992 83.1328C2.74805 82.7461 2.66211 82.3223 2.66211 81.8613C2.66211 81.1309 2.8457 80.5586 3.21289 80.1445C3.57617 79.7305 4.07812 79.5156 4.71875 79.5H7.63672C8.21875 79.5 8.68164 79.4258 9.02539 79.2773H9.11914V80.4141ZM8.29297 82.2129C8.29297 81.873 8.20508 81.5508 8.0293 81.2461C7.85352 80.9414 7.625 80.7207 7.34375 80.584H6.04297V81.4336C6.04297 82.7617 6.43164 83.4258 7.20898 83.4258C7.54883 83.4258 7.81445 83.3125 8.00586 83.0859C8.19727 82.8594 8.29297 82.5684 8.29297 82.2129ZM7.4375 74.1094C7.14453 74.1094 6.91797 74.2207 6.75781 74.4434C6.59375 74.6621 6.45312 75.0469 6.33594 75.5977C6.21875 76.1445 6.07812 76.5801 5.91406 76.9043C5.75 77.2246 5.55469 77.4629 5.32812 77.6191C5.10156 77.7715 4.83203 77.8477 4.51953 77.8477C4 77.8477 3.56055 77.6289 3.20117 77.1914C2.8418 76.75 2.66211 76.1875 2.66211 75.5039C2.66211 74.7852 2.84766 74.2031 3.21875 73.7578C3.58984 73.3086 4.06445 73.084 4.64258 73.084V74.1738C4.3457 74.1738 4.08984 74.3008 3.875 74.5547C3.66016 74.8047 3.55273 75.1211 3.55273 75.5039C3.55273 75.8984 3.63867 76.207 3.81055 76.4297C3.98242 76.6523 4.20703 76.7637 4.48438 76.7637C4.74609 76.7637 4.94336 76.6602 5.07617 76.4531C5.20898 76.2461 5.33594 75.873 5.45703 75.334C5.57812 74.791 5.72266 74.3516 5.89062 74.0156C6.05859 73.6797 6.26172 73.4316 6.5 73.2715C6.73438 73.1074 7.02148 73.0254 7.36133 73.0254C7.92773 73.0254 8.38281 73.252 8.72656 73.7051C9.06641 74.1582 9.23633 74.7461 9.23633 75.4688C9.23633 75.9766 9.14648 76.4258 8.9668 76.8164C8.78711 77.207 8.53711 77.5137 8.2168 77.7363C7.89258 77.9551 7.54297 78.0645 7.16797 78.0645V76.9805C7.53125 76.9609 7.82031 76.8164 8.03516 76.5469C8.24609 76.2734 8.35156 75.9141 8.35156 75.4688C8.35156 75.0586 8.26953 74.7305 8.10547 74.4844C7.9375 74.2344 7.71484 74.1094 7.4375 74.1094ZM1.24414 70.1426H2.7793V68.959H3.61719V70.1426H7.54883C7.80273 70.1426 7.99414 70.0898 8.12305 69.9844C8.24805 69.8789 8.31055 69.6992 8.31055 69.4453C8.31055 69.3203 8.28711 69.1484 8.24023 68.9297H9.11914C9.19727 69.2148 9.23633 69.4922 9.23633 69.7617C9.23633 70.2461 9.08984 70.6113 8.79688 70.8574C8.50391 71.1035 8.08789 71.2266 7.54883 71.2266H3.61719V72.3809H2.7793V71.2266H1.24414V70.1426ZM3.54688 63.627C2.95703 63.1465 2.66211 62.5215 2.66211 61.752C2.66211 60.4121 3.41797 59.7363 4.92969 59.7246H9.11914V60.8086H4.92383C4.4668 60.8125 4.12891 60.918 3.91016 61.125C3.69141 61.3281 3.58203 61.6465 3.58203 62.0801C3.58203 62.4316 3.67578 62.7402 3.86328 63.0059C4.05078 63.2715 4.29688 63.4785 4.60156 63.627H9.11914V64.7109H0.119141V63.627H3.54688ZM5.89062 58.3887C5.26953 58.3887 4.71094 58.2676 4.21484 58.0254C3.71875 57.7793 3.33594 57.4395 3.06641 57.0059C2.79688 56.5684 2.66211 56.0703 2.66211 55.5117C2.66211 54.6484 2.96094 53.9512 3.55859 53.4199C4.15625 52.8848 4.95117 52.6172 5.94336 52.6172H6.01953C6.63672 52.6172 7.19141 52.7363 7.68359 52.9746C8.17188 53.209 8.55273 53.5469 8.82617 53.9883C9.09961 54.4258 9.23633 54.9297 9.23633 55.5C9.23633 56.3594 8.9375 57.0566 8.33984 57.5918C7.74219 58.123 6.95117 58.3887 5.9668 58.3887H5.89062ZM6.01953 57.2988C6.72266 57.2988 7.28711 57.1367 7.71289 56.8125C8.13867 56.4844 8.35156 56.0469 8.35156 55.5C8.35156 54.9492 8.13672 54.5117 7.70703 54.1875C7.27344 53.8633 6.66797 53.7012 5.89062 53.7012C5.19531 53.7012 4.63281 53.8672 4.20312 54.1992C3.76953 54.5273 3.55273 54.9648 3.55273 55.5117C3.55273 56.0469 3.76562 56.4785 4.19141 56.8066C4.61719 57.1348 5.22656 57.2988 6.01953 57.2988ZM8.49219 47.3438C8.98828 47.7656 9.23633 48.3848 9.23633 49.2012C9.23633 49.877 9.04102 50.3926 8.65039 50.748C8.25586 51.0996 7.67383 51.2773 6.9043 51.2812H2.7793V50.1973H6.875C7.83594 50.1973 8.31641 49.8066 8.31641 49.0254C8.31641 48.1973 8.00781 47.6465 7.39062 47.373H2.7793V46.2891H9.11914V47.3203L8.49219 47.3438ZM3.75195 41.5723C3.72461 41.7363 3.71094 41.9141 3.71094 42.1055C3.71094 42.8164 4.01367 43.2988 4.61914 43.5527H9.11914V44.6367H2.7793V43.582L3.51172 43.5645C2.94531 43.209 2.66211 42.7051 2.66211 42.0527C2.66211 41.8418 2.68945 41.6816 2.74414 41.5723H3.75195Z" fill="#A6A6A6"/>
</svg>
