<svg width="20" height="19" viewBox="0 0 20 19" fill="none" xmlns="http://www.w3.org/2000/svg">
<path d="M10 19C4.76 19 0.5 14.74 0.5 9.5C0.5 4.26 4.76 0 10 0C15.24 0 19.5 4.26 19.5 9.5C19.5 14.74 15.24 19 10 19ZM10 2C5.86 2 2.5 5.36 2.5 9.5C2.5 13.64 5.86 17 10 17C14.14 17 17.5 13.64 17.5 9.5C17.5 5.36 14.14 2 10 2Z" fill="#999999"/>
<path d="M10 13.9C9.45 13.9 9 13.45 9 12.9V9.5C9 8.95 9.45 8.5 10 8.5C10.55 8.5 11 8.95 11 9.5V12.9C11 13.45 10.55 13.9 10 13.9Z" fill="#999999"/>
<path d="M10 7.09962C9.87 7.09962 9.74 7.06962 9.62 7.01962C9.49 6.96962 9.38998 6.89961 9.28998 6.80961C9.19998 6.70961 9.13002 6.59961 9.08002 6.47961C9.02002 6.35961 9 6.22962 9 6.09962C9 5.96962 9.02002 5.83962 9.08002 5.71962C9.13002 5.59962 9.19998 5.48961 9.28998 5.38961C9.38998 5.29961 9.49 5.22961 9.62 5.17961C9.8 5.09961 10 5.07961 10.2 5.11961C10.26 5.12961 10.32 5.14961 10.38 5.17961C10.44 5.19961 10.5 5.22962 10.56 5.26962C10.61 5.30962 10.66 5.34961 10.71 5.38961C10.8 5.48961 10.87 5.59962 10.92 5.71962C10.97 5.83962 11 5.96962 11 6.09962C11 6.22962 10.97 6.35961 10.92 6.47961C10.87 6.59961 10.8 6.70961 10.71 6.80961C10.66 6.84961 10.61 6.88961 10.56 6.92961C10.5 6.96961 10.44 6.99962 10.38 7.01962C10.32 7.04962 10.26 7.06962 10.2 7.07962C10.13 7.08962 10.07 7.09962 10 7.09962Z" fill="#999999"/>
</svg>
