<svg width="14" height="19" viewBox="0 0 14 19" fill="none" xmlns="http://www.w3.org/2000/svg">
<path d="M6.48016 0C6.82016 0 7.16016 0 7.50016 0C7.76016 0.04 8.03016 0.0699999 8.29016 0.12C13.3302 1.1 15.6502 6.9 12.6702 11.08C10.9702 13.47 9.28016 15.86 7.58016 18.25C7.47016 18.41 7.29016 18.53 7.14016 18.66C7.04016 18.66 6.95016 18.66 6.85016 18.66C6.70016 18.52 6.52016 18.41 6.41016 18.25C4.70016 15.85 3.00016 13.45 1.30016 11.05C0.240158 9.55 -0.179841 7.88 0.0701588 6.05C0.450159 3.18 2.62016 0.809999 5.44016 0.179999C5.77016 0.0999994 6.13016 0.06 6.48016 0ZM7.00016 4.67C5.71016 4.67 4.66016 5.71 4.66016 6.99C4.65016 8.28 5.70016 9.34 6.99016 9.34C8.27016 9.34 9.32016 8.29 9.32016 7.01C9.32016 5.72 8.28016 4.67 7.00016 4.67Z" fill="#707070"/>
</svg>
