<svg width="14" height="20" viewBox="0 0 14 20" fill="none" xmlns="http://www.w3.org/2000/svg">
<path d="M11.1699 19.3302H2.83997C1.36997 19.3302 0.169922 18.1302 0.169922 16.6602V5.00018C0.169922 4.45018 0.619922 4.00018 1.16992 4.00018C1.71992 4.00018 2.16992 4.45018 2.16992 5.00018V16.6702C2.16992 17.0402 2.46997 17.3402 2.83997 17.3402H11.1699C11.5399 17.3402 11.84 17.0402 11.84 16.6702V5.00018C11.84 4.45018 12.29 4.00018 12.84 4.00018C13.39 4.00018 13.84 4.45018 13.84 5.00018V16.6702C13.83 18.1402 12.6399 19.3302 11.1699 19.3302ZM10.33 6.00018C9.77996 6.00018 9.32996 5.55018 9.32996 5.00018V3.3302C9.32996 2.9602 9.02991 2.66016 8.65991 2.66016H5.32996C4.95996 2.66016 4.65991 2.9602 4.65991 3.3302V5.00018C4.65991 5.55018 4.20991 6.00018 3.65991 6.00018C3.10991 6.00018 2.65991 5.55018 2.65991 5.00018V3.3302C2.65991 1.8602 3.85996 0.660156 5.32996 0.660156H8.65991C10.1299 0.660156 11.33 1.8602 11.33 3.3302V5.00018C11.33 5.55018 10.89 6.00018 10.33 6.00018Z" fill="#999999"/>
<path d="M5.33008 15.1699C4.78008 15.1699 4.33008 14.7199 4.33008 14.1699V9.16992C4.33008 8.61992 4.78008 8.16992 5.33008 8.16992C5.88008 8.16992 6.33008 8.61992 6.33008 9.16992V14.1699C6.33008 14.7199 5.89008 15.1699 5.33008 15.1699Z" fill="#999999"/>
<path d="M8.66992 15.1699C8.11992 15.1699 7.66992 14.7199 7.66992 14.1699V9.16992C7.66992 8.61992 8.11992 8.16992 8.66992 8.16992C9.21992 8.16992 9.66992 8.61992 9.66992 9.16992V14.1699C9.66992 14.7199 9.21992 15.1699 8.66992 15.1699Z" fill="#999999"/>
</svg>
