<svg width="13" height="12" viewBox="0 0 13 12" fill="none" xmlns="http://www.w3.org/2000/svg">
<path d="M2.00051 12.0003C1.74051 12.0003 1.49055 11.9003 1.29055 11.7103C0.900547 11.3203 0.900547 10.6903 1.29055 10.3003L11.2905 0.300312C11.6805 -0.0896875 12.3105 -0.0896875 12.7005 0.300312C13.0905 0.690313 13.0905 1.32035 12.7005 1.71035L2.70046 11.7103C2.51046 11.9003 2.26051 12.0003 2.00051 12.0003Z" fill="#14924B"/>
<path d="M12 12C11.45 12 11 11.55 11 11V2H2C1.45 2 1 1.55 1 1C1 0.45 1.45 0 2 0H12C12.55 0 13 0.45 13 1V11C13 11.55 12.55 12 12 12Z" fill="#14924B"/>
</svg>
